<svg width="50" height="21" viewBox="0 0 50 21" fill="none" xmlns="http://www.w3.org/2000/svg">
<path d="M25.1232 0.713379C25.1232 1.73186 25.1232 2.75035 25.1232 3.7997C24.761 3.85846 24.3988 3.91722 24.0256 3.97776C22.2436 4.47539 20.6143 5.53264 19.6955 7.13534C18.8321 8.66993 18.4863 10.3904 18.8975 12.1278C19.2074 13.1367 19.6539 14.0391 20.3671 14.8392C20.4083 14.8879 20.4495 14.9366 20.4919 14.9867C21.6882 16.3551 23.3644 16.9021 25.1232 17.2133C25.1232 18.2318 25.1232 19.2503 25.1232 20.2996C22.4923 20.2996 20.1582 19.1585 18.2939 17.3914C16.9707 16.0607 16.0206 14.3297 15.611 12.5245C15.6001 12.4771 15.5892 12.4298 15.5779 12.381C15.4703 11.849 15.4684 11.3208 15.4698 10.7808C15.47 10.6232 15.4685 10.4657 15.467 10.3082C15.4636 9.42137 15.5405 8.52854 15.8358 7.68357C15.8513 7.63775 15.8668 7.59194 15.8828 7.54474C16.7771 4.98006 18.5979 2.8352 21.1012 1.62268C22.4173 1.01047 23.6596 0.713379 25.1232 0.713379Z" fill="white"/>
<path d="M27.1354 9.4975C29.9524 9.4975 32.7695 9.4975 35.6719 9.4975C35.6719 11.3623 35.6719 11.3623 35.5729 11.9272C35.562 11.993 35.5511 12.0587 35.5399 12.1265C35.3645 13.1282 35.0315 14.0468 34.5744 14.9579C34.5399 15.0268 34.5054 15.0958 34.4698 15.1668C33.2928 17.3962 31.1709 19.0977 28.7369 19.8809C27.8383 20.1559 26.9223 20.359 25.9768 20.359C25.9768 19.3013 25.9768 18.2437 25.9768 17.1539C26.2988 17.1148 26.6207 17.0756 26.9524 17.0352C28.7011 16.669 30.2851 15.6626 31.2626 14.1938C31.5842 13.6988 31.8375 13.1812 32.0744 12.6432C30.4445 12.6432 28.8146 12.6432 27.1354 12.6432C27.1354 11.6051 27.1354 10.567 27.1354 9.4975Z" fill="white"/>
<path d="M7.62316 8.36987C8.77094 8.50953 8.77094 8.50953 9.13993 8.59244C9.18496 8.60249 9.22999 8.61253 9.27638 8.62287C10.4228 8.88857 11.5221 9.29646 12.4402 10.0317C12.5004 10.0799 12.5605 10.128 12.6224 10.1776C13.6173 11.0042 14.265 12.1493 14.4524 13.4148C14.5557 15.4002 14.2323 17.046 12.8411 18.5615C11.4919 19.9488 9.53426 20.5385 7.62316 20.6558C7.62162 20.2089 7.62055 19.762 7.61981 19.3151C7.61951 19.1629 7.61909 19.0108 7.61856 18.8586C7.61783 18.6404 7.61748 18.4222 7.61721 18.204C7.61689 18.1355 7.61658 18.067 7.61625 17.9965C7.61625 17.9335 7.61624 17.8705 7.61624 17.8056C7.6161 17.7499 7.61597 17.6941 7.61583 17.6367C7.62316 17.5101 7.62316 17.5101 7.68414 17.4508C7.81859 17.4343 7.95331 17.4198 8.0881 17.4063C9.04255 17.293 9.93731 16.9669 10.5671 16.232C10.7455 15.983 10.8672 15.7161 10.9768 15.4328C10.9991 15.3793 11.0215 15.3258 11.0445 15.2707C11.2272 14.6179 11.1741 13.7771 10.8549 13.1774C10.3895 12.4034 9.69354 12.0202 8.82362 11.7715C8.42823 11.6827 8.02486 11.6308 7.62316 11.5749C7.62316 10.5172 7.62316 9.45958 7.62316 8.36987Z" fill="white"/>
<path d="M6.56564 2.88708e-05C6.61519 0.000187866 6.66475 0.000346861 6.71581 0.000510674C6.77257 0.000817307 6.77257 0.000817307 6.83048 0.00113013C6.83203 0.448035 6.8331 0.89494 6.83383 1.34185C6.83414 1.49401 6.83456 1.64618 6.83508 1.79835C6.83582 2.01653 6.83617 2.23471 6.83644 2.45289C6.83675 2.52139 6.83707 2.58989 6.83739 2.66047C6.8374 2.72345 6.8374 2.78642 6.83741 2.8513C6.83754 2.90705 6.83768 2.9628 6.83782 3.02024C6.83048 3.1468 6.83048 3.1468 6.76951 3.20616C6.66177 3.22254 6.55372 3.23702 6.44558 3.25067C5.56508 3.39012 4.85905 3.81252 4.33048 4.51191C3.97074 5.08312 3.86092 5.70518 4.00655 6.36319C4.20703 6.99983 4.53067 7.48839 5.12317 7.83564C5.67962 8.10362 6.13047 8.16224 6.76951 8.2511C6.76951 9.30876 6.76951 10.3664 6.76951 11.4561C4.93881 11.3288 3.20807 10.9062 1.9067 9.57169C1.59524 9.21771 1.34384 8.82833 1.09878 8.42916C1.07237 8.38647 1.04596 8.34378 1.01875 8.29979C0.420822 7.24036 0.331498 5.55252 0.652893 4.38207C0.696534 4.24623 0.743232 4.11125 0.793899 3.97774C0.815279 3.91661 0.836658 3.85548 0.858686 3.79249C1.14411 3.05065 1.62435 2.39874 2.19634 1.84105C2.24633 1.7917 2.29632 1.74236 2.34782 1.69151C3.28211 0.815734 4.42551 0.388873 5.67195 0.119835C5.73058 0.106369 5.78922 0.0929037 5.84963 0.0790301C6.09362 0.0260916 6.31538 -0.00101172 6.56564 2.88708e-05Z" fill="white"/>
<path d="M24.0963 5.75647C24.264 5.84791 24.3293 5.992 24.4334 6.14782C24.7164 6.46207 24.9467 6.52297 25.3721 6.55248C26.0183 6.57613 26.0183 6.57613 26.578 6.30733C26.698 6.1831 26.7907 6.05175 26.8846 5.90833C26.9271 5.85883 26.9696 5.80933 27.0134 5.75832C27.2765 5.7556 27.4772 5.85188 27.707 5.96977C27.7603 5.99677 27.8136 6.02378 27.8685 6.05161C27.9282 6.08271 27.9282 6.08271 27.989 6.11444C27.9752 6.22312 27.9752 6.22312 27.9612 6.334C27.9055 6.94174 27.9055 6.94174 28.1419 7.48882C28.3732 7.74926 28.6189 7.97012 28.9644 8.06263C29.136 8.06571 29.2845 8.04676 29.4524 8.01371C29.5578 8.00326 29.6633 7.99333 29.7687 7.98404C29.8838 7.96935 29.8838 7.96935 30.0012 7.95436C30.0423 8.03949 30.0828 8.12485 30.1232 8.21032C30.1458 8.25783 30.1684 8.30534 30.1918 8.35429C30.2451 8.48853 30.2451 8.48853 30.2451 8.66659C29.7863 8.67414 29.3274 8.67932 28.8685 8.68289C28.7125 8.68438 28.5566 8.6864 28.4006 8.68898C28.1758 8.6926 27.9511 8.69426 27.7263 8.69557C27.6571 8.6971 27.5879 8.69863 27.5166 8.70021C27.0599 8.70037 26.7822 8.61284 26.4037 8.36983C25.9077 8.16767 25.2359 8.16395 24.7306 8.34386C24.1511 8.61501 23.7319 9.00301 23.4749 9.57913C23.2427 10.2322 23.3145 10.8742 23.6121 11.4916C23.9261 12.0546 24.3874 12.3621 24.9938 12.5915C25.4563 12.7171 25.9354 12.654 26.4037 12.5838C26.4037 12.858 26.4037 13.1323 26.4037 13.4148C26.9469 13.4148 27.4902 13.4148 28.05 13.4148C28.0299 13.4735 28.0098 13.5323 27.989 13.5928C27.9841 13.6851 27.9825 13.7775 27.9831 13.8699C27.9833 13.9229 27.9835 13.9759 27.9837 14.0304C27.9842 14.0856 27.9847 14.1407 27.9852 14.1975C27.9855 14.2533 27.9858 14.3091 27.986 14.3666C27.9868 14.5044 27.9878 14.6421 27.989 14.7799C27.8523 14.8429 27.7152 14.9044 27.5774 14.9654C27.5388 14.9833 27.5001 15.0013 27.4602 15.0198C27.1714 15.1458 27.1714 15.1458 26.9951 15.098C26.8684 14.9993 26.7717 14.884 26.6745 14.7581C26.4577 14.519 26.2993 14.4108 25.9709 14.3755C25.259 14.3234 25.259 14.3234 24.6244 14.5833C24.4409 14.751 24.2906 14.9348 24.1476 15.136C24.0521 15.1106 23.9569 15.0845 23.8617 15.0581C23.8087 15.0436 23.7556 15.0292 23.701 15.0143C23.6471 14.9957 23.5933 14.9771 23.5378 14.9579C23.4808 14.9386 23.4238 14.9192 23.3651 14.8993C23.2329 14.7799 23.2329 14.7799 23.2161 14.6612C23.2178 14.5051 23.2255 14.3497 23.2329 14.1938C23.2302 13.7377 23.1783 13.4046 22.848 13.0661C22.5533 12.7913 22.2914 12.7247 21.8875 12.7316C21.6417 12.7488 21.4027 12.7805 21.1598 12.8213C21.095 12.6882 21.0318 12.5547 20.9692 12.4206C20.9507 12.383 20.9323 12.3453 20.9132 12.3066C20.7858 12.0296 20.7858 12.0296 20.8206 11.8607C20.9283 11.7388 21.0511 11.6592 21.1871 11.5693C21.4931 11.3527 21.6593 11.1493 21.7257 10.7808C21.7633 10.3782 21.7851 9.95233 21.5606 9.59742C21.3388 9.34118 21.0795 9.14806 20.7939 8.96335C20.8433 8.8273 20.8929 8.69129 20.9425 8.5553C20.9636 8.49735 20.9636 8.49735 20.985 8.43822C21.0919 8.14586 21.0919 8.14586 21.1598 8.01371C21.1947 8.01744 21.2297 8.02117 21.2657 8.02502C22.0691 8.11007 22.0691 8.11007 22.7891 7.81908C23.1518 7.47956 23.2311 7.14573 23.2482 6.66345C23.2488 6.47948 23.2426 6.2983 23.2329 6.11444C23.3493 6.05298 23.4663 5.99259 23.5835 5.93267C23.6486 5.89893 23.7137 5.86519 23.7808 5.83043C23.9646 5.75832 23.9646 5.75832 24.0963 5.75647Z" fill="white"/>
<path d="M3.29391 14.6018C3.3093 14.6601 3.3093 14.6601 3.32501 14.7195C3.57048 15.6245 4.11408 16.3762 4.94025 16.8572C4.98647 16.8846 5.03268 16.912 5.0803 16.9402C5.53338 17.1844 6.02485 17.2816 6.52562 17.3914C6.64635 17.4208 6.64635 17.4208 6.76952 17.4507C6.76952 18.4888 6.76952 19.5269 6.76952 20.5964C5.8452 20.5964 5.8452 20.5964 5.43949 20.4999C5.39336 20.4894 5.34724 20.4788 5.29972 20.4679C3.61835 20.0643 1.97187 19.115 1.01447 17.6761C0.635885 17.0388 0.287213 16.4079 0.0812553 15.6961C0.0582644 15.6189 0.0582644 15.6189 0.034809 15.5401C-0.00481413 15.3434 -0.000902866 15.1579 0.00122477 14.9579C0.381881 14.9067 0.762612 14.8561 1.1434 14.8058C1.27275 14.7886 1.40209 14.7714 1.53141 14.754C1.71799 14.7289 1.90464 14.7043 2.09131 14.6797C2.17709 14.668 2.17709 14.668 2.2646 14.6561C2.61111 14.6111 2.9443 14.5945 3.29391 14.6018Z" fill="white"/>
<path d="M25.9768 0.653992C27.1938 0.723675 27.1938 0.723675 27.7947 0.865434C27.8959 0.888932 27.8959 0.888932 27.9992 0.912905C29.4192 1.25749 30.7524 1.89674 31.8915 2.79068C31.9288 2.81993 31.9661 2.84919 32.0046 2.87933C32.4764 3.25274 32.9031 3.64155 33.2939 4.09643C33.0563 4.33706 32.8027 4.54788 32.5355 4.75672C32.4717 4.80687 32.4717 4.80687 32.4067 4.85804C32.0886 5.10757 31.7683 5.35429 31.4459 5.59858C31.2807 5.72395 31.1188 5.85153 30.9601 5.98457C30.7939 6.11441 30.7939 6.11441 30.6719 6.11441C30.5924 6.03141 30.5924 6.03141 30.4966 5.91409C29.3456 4.60694 27.6796 4.03644 25.9768 3.79966C25.9768 2.76159 25.9768 1.72352 25.9768 0.653992Z" fill="white"/>
<path d="M7.62317 0.00109863C9.4141 0.00109863 11.0521 0.725199 12.3259 1.94118C12.8325 2.43924 13.7817 3.40644 13.7817 4.15576C13.4945 4.25181 13.2073 4.34781 12.9201 4.44376C12.8229 4.47626 12.7256 4.50877 12.6284 4.54131C12.3016 4.65061 11.9746 4.75951 11.6476 4.86799C11.6025 4.88297 11.5574 4.89794 11.5109 4.91338C11.3832 4.95572 11.2554 4.9978 11.1276 5.03979C11.0176 5.07603 11.0176 5.07603 10.9054 5.11301C10.7329 5.16475 10.7329 5.16475 10.611 5.16475C10.5756 5.09922 10.5756 5.09922 10.5395 5.03237C10.5078 4.97445 10.476 4.91653 10.4433 4.85686C10.4122 4.79971 10.381 4.74256 10.349 4.68367C9.94699 4.01868 9.3209 3.65895 8.59878 3.38418C8.27683 3.32542 7.95488 3.26666 7.62317 3.20612C7.62317 2.14847 7.62317 1.09081 7.62317 0.00109863Z" fill="white"/>
<path d="M16.9524 17.2133C17.0354 17.2629 17.0354 17.2629 17.1201 17.3135C17.5694 17.7629 17.7073 18.2248 17.7008 18.8369C17.6599 19.3676 17.4131 19.7665 17.0134 20.1216C16.7446 20.3251 16.5053 20.4579 16.1598 20.4777C16.1102 20.4821 16.0606 20.4864 16.0095 20.4909C15.4678 20.5197 15.0062 20.3389 14.5975 19.9864C14.2195 19.5268 14.0264 18.9821 14.0866 18.4004C14.2335 17.8569 14.5165 17.4247 15.0088 17.128C15.6468 16.773 16.3431 16.8309 16.9524 17.2133Z" fill="white"/>
<path d="M35.883 17.0756C36.4018 17.3382 36.7084 17.7471 36.8915 18.2816C36.9491 18.937 36.853 19.4227 36.4227 19.9361C36.0568 20.3129 35.5885 20.4785 35.0622 20.5036C34.5867 20.498 34.193 20.3086 33.8322 20.013C33.4768 19.6493 33.2845 19.2251 33.2672 18.723C33.2944 18.1166 33.5378 17.6725 33.9875 17.2578C34.0403 17.2235 34.0931 17.1892 34.1476 17.1539C34.1811 17.1319 34.2147 17.1098 34.2493 17.0871C34.764 16.7896 35.3472 16.8606 35.883 17.0756Z" fill="white"/>
<path d="M37.7439 0.652893C41.7884 0.652893 45.8329 0.652893 50 0.652893C50 1.69097 50 2.72904 50 3.79857C47.022 3.79857 44.0439 3.79857 40.9756 3.79857C40.9756 5.54174 40.9756 7.28492 40.9756 9.08092C43.4305 9.08092 45.8854 9.08092 48.4146 9.08092C48.4146 10.119 48.4146 11.1571 48.4146 12.2266C45.9598 12.2266 43.5049 12.2266 40.9756 12.2266C40.9756 14.9687 40.9756 17.7108 40.9756 20.5359C39.9092 20.5359 38.8427 20.5359 37.7439 20.5359C37.7439 13.9745 37.7439 7.41312 37.7439 0.652893Z" fill="white"/>
</svg>
