<svg width="190" height="34" viewBox="0 0 190 34" fill="none" xmlns="http://www.w3.org/2000/svg">
<path d="M107.014 3.99526C108.994 5.91432 109.08 8.7622 109.333 11.334C109.366 11.669 109.4 12.0039 109.433 12.3389C109.511 13.1156 109.588 13.8924 109.666 14.6692C109.764 15.6596 109.863 16.65 109.962 17.6403C110.002 18.0373 110.041 18.4342 110.08 18.8312C110.105 19.0787 110.129 19.3262 110.154 19.5736C110.166 19.6874 110.177 19.8012 110.188 19.915C110.265 21.4677 110.266 21.4677 111.021 22.7525C111.529 23.1489 112.136 23.2097 112.764 23.1728C113.365 23.097 113.855 22.9152 114.257 22.4461C114.699 21.7605 114.67 20.7987 114.747 20.0114C114.759 19.8867 114.772 19.7621 114.784 19.6375C114.811 19.3703 114.837 19.1031 114.864 18.8359C114.905 18.4119 114.948 17.988 114.99 17.5641C115.111 16.359 115.231 15.1539 115.35 13.9487C115.415 13.2821 115.482 12.6156 115.549 11.9491C115.584 11.5975 115.619 11.2458 115.654 10.8941C116.181 5.4901 116.181 5.4901 118.159 3.82654C119.247 3.00994 120.511 2.65674 121.858 2.59245C121.922 2.58927 121.986 2.58609 122.053 2.58281C123.882 2.53875 125.588 3.02081 126.944 4.28933C128.116 5.49 128.575 7.16538 128.573 8.80537C128.573 8.91306 128.573 8.91306 128.574 9.02293C128.574 9.26225 128.574 9.50155 128.574 9.74087C128.575 9.91296 128.575 10.0851 128.576 10.2572C128.577 10.7238 128.577 11.1904 128.577 11.657C128.578 11.9487 128.578 12.2404 128.578 12.5321C128.579 13.3408 128.58 14.1495 128.58 14.9582C128.58 15.0098 128.58 15.0615 128.58 15.1147C128.58 15.1665 128.58 15.2183 128.58 15.2716C128.58 15.3766 128.581 15.4815 128.581 15.5864C128.581 15.6384 128.581 15.6905 128.581 15.7441C128.581 16.5874 128.582 17.4308 128.584 18.2742C128.586 19.1414 128.587 20.0087 128.587 20.8759C128.587 21.3623 128.587 21.8487 128.589 22.335C128.59 22.7925 128.59 23.25 128.59 23.7074C128.59 23.875 128.59 24.0426 128.591 24.2102C128.592 24.4396 128.591 24.6689 128.59 24.8983C128.591 24.997 128.591 24.997 128.592 25.0976C128.587 25.7962 128.43 26.4011 127.943 26.9124C127.354 27.4192 126.693 27.4806 125.942 27.4286C125.41 27.3245 124.907 27.0983 124.593 26.6431C124.294 26.1231 124.235 25.7193 124.236 25.121C124.236 25.0507 124.236 24.9804 124.235 24.908C124.235 24.672 124.235 24.436 124.234 24.2C124.234 24.031 124.234 23.862 124.233 23.693C124.232 23.3287 124.232 22.9644 124.231 22.6001C124.23 22.0238 124.229 21.4475 124.227 20.8712C124.225 20.0629 124.223 19.2546 124.221 18.4462C124.22 18.395 124.22 18.3437 124.22 18.2908C124.218 17.4604 124.217 16.63 124.215 15.7996C124.214 14.9463 124.212 14.093 124.209 13.2397C124.207 12.7609 124.206 12.2821 124.206 11.8033C124.206 11.3527 124.205 10.9021 124.203 10.4514C124.202 10.2863 124.202 10.1212 124.202 9.95615C124.202 9.73012 124.201 9.50413 124.2 9.27811C124.2 9.21334 124.201 9.14857 124.201 9.08184C124.194 8.45297 124.062 7.77386 123.63 7.29743C123.05 6.93511 122.454 6.72599 121.765 6.87019C121.27 7.01331 120.889 7.23919 120.606 7.67796C120.195 8.50076 120.201 9.52845 120.112 10.4279C120.101 10.545 120.089 10.662 120.077 10.7791C120.052 11.0292 120.027 11.2794 120.002 11.5296C119.962 11.9266 119.922 12.3237 119.882 12.7207C119.776 13.7781 119.669 14.8355 119.564 15.893C119.494 16.5888 119.424 17.2845 119.354 17.9803C119.32 18.3096 119.287 18.6389 119.255 18.9683C118.892 22.6113 118.892 22.6113 118.563 23.5286C118.544 23.5854 118.524 23.6422 118.503 23.7007C118.192 24.56 117.722 25.2395 117.08 25.8859C117.034 25.9342 116.989 25.9824 116.942 26.0321C115.658 27.2861 113.743 27.4572 112.048 27.4397C110.722 27.413 109.36 27.0975 108.295 26.2716C108.197 26.1957 108.197 26.1957 108.097 26.1182C106.555 24.827 106.099 22.9093 105.903 20.9942C105.89 20.8763 105.878 20.7584 105.865 20.6405C105.832 20.3391 105.801 20.0376 105.77 19.736C105.753 19.5684 105.735 19.4009 105.718 19.2334C105.646 18.5437 105.577 17.8537 105.508 17.1636C105.479 16.8749 105.45 16.5862 105.421 16.2975C105.323 15.3233 105.226 14.349 105.129 13.3747C105.075 12.831 105.02 12.2872 104.965 11.7436C104.931 11.4029 104.897 11.0622 104.863 10.7215C104.838 10.4606 104.811 10.1998 104.785 9.93899C104.776 9.84647 104.767 9.75395 104.757 9.65864C104.645 8.35498 104.645 8.35498 104.01 7.2459C103.553 6.88931 103.009 6.78541 102.438 6.83464C101.901 6.93813 101.487 7.10776 101.128 7.52882C100.851 7.99753 100.775 8.42034 100.781 8.95772C100.781 9.02837 100.78 9.09903 100.78 9.17182C100.779 9.40683 100.78 9.64178 100.781 9.87679C100.78 10.046 100.78 10.2152 100.779 10.3844C100.778 10.7479 100.777 11.1114 100.778 11.4749C100.779 12.0499 100.777 12.6249 100.776 13.1999C100.774 14.0062 100.773 14.8126 100.772 15.6189C100.772 15.67 100.772 15.7211 100.772 15.7737C100.772 15.8249 100.772 15.876 100.772 15.9287C100.772 16.654 100.772 17.3792 100.771 18.1044C100.771 18.1554 100.771 18.2065 100.77 18.259C100.769 19.111 100.768 19.963 100.766 20.815C100.764 21.3864 100.764 21.9578 100.764 22.5292C100.764 22.8848 100.764 23.2405 100.763 23.5961C100.763 23.7608 100.763 23.9254 100.763 24.09C100.764 24.3152 100.763 24.5404 100.762 24.7656C100.763 24.8303 100.763 24.895 100.764 24.9617C100.759 25.6487 100.652 26.2729 100.204 26.8115C99.6328 27.3529 99.0668 27.4626 98.294 27.4475C97.6839 27.4009 97.2234 27.1932 96.813 26.7344C96.5505 26.3655 96.4185 26.0184 96.4173 25.5674C96.417 25.5041 96.4166 25.4409 96.4163 25.3758C96.4163 25.3068 96.4163 25.2377 96.4163 25.1666C96.416 25.0929 96.4157 25.0193 96.4155 24.9434C96.4146 24.6958 96.4143 24.4483 96.414 24.2008C96.4135 24.0235 96.413 23.8463 96.4125 23.669C96.4109 23.086 96.4101 22.503 96.4093 21.92C96.409 21.7191 96.4087 21.5182 96.4083 21.3173C96.407 20.481 96.4059 19.6447 96.4054 18.8085C96.4052 18.5915 96.4051 18.3746 96.4049 18.1576C96.4049 18.0767 96.4049 18.0767 96.4048 17.9942C96.4042 17.1228 96.4022 16.2513 96.3997 15.3799C96.3971 14.4836 96.3958 13.5873 96.3955 12.6911C96.3953 12.1885 96.3947 11.6859 96.3927 11.1834C96.3909 10.7098 96.3906 10.2362 96.3914 9.76256C96.3914 9.5896 96.3909 9.41664 96.3899 9.24369C96.3828 8.02247 96.4306 6.8075 97.0345 5.71142C97.0614 5.66046 97.0883 5.6095 97.116 5.55699C97.3178 5.18221 97.5307 4.83759 97.8148 4.52072C97.8634 4.46494 97.9121 4.40916 97.9622 4.35169C100.134 2.01547 104.613 1.9719 107.014 3.99526Z" fill="white"/>
<path d="M135.912 7.42759C135.999 7.42824 135.999 7.42824 136.088 7.4289C136.707 7.44244 137.149 7.58414 137.614 8.01149C138.019 8.47028 138.127 8.99849 138.128 9.59658C138.128 9.68619 138.128 9.77579 138.129 9.86811C138.129 9.96576 138.129 10.0634 138.129 10.164C138.129 10.2685 138.129 10.3729 138.129 10.4773C138.13 10.702 138.13 10.9267 138.131 11.1514C138.131 11.5079 138.132 11.8643 138.134 12.2207C138.134 12.3431 138.135 12.4654 138.135 12.5878C138.136 12.649 138.136 12.7103 138.136 12.7734C138.139 13.6028 138.142 14.4321 138.143 15.2614C138.143 15.8214 138.145 16.3814 138.148 16.9413C138.15 17.237 138.151 17.5327 138.15 17.8284C138.11 20.2643 138.11 20.2643 139.213 22.3696C140.175 23.2287 141.5 23.4594 142.747 23.4364C143.887 23.3661 145.052 23.0906 145.849 22.206C146.641 21.1223 146.76 19.9013 146.759 18.6034C146.76 18.4997 146.76 18.396 146.76 18.2923C146.761 18.07 146.761 17.8477 146.761 17.6255C146.762 17.2733 146.763 16.9212 146.765 16.5691C146.765 16.4482 146.766 16.3273 146.766 16.2064C146.766 16.1458 146.767 16.0853 146.767 16.023C146.77 15.204 146.773 14.3851 146.774 13.5662C146.774 13.0126 146.776 12.459 146.779 11.9054C146.78 11.613 146.781 11.3206 146.781 11.0282C146.781 10.7531 146.782 10.478 146.784 10.2028C146.785 10.0548 146.784 9.90687 146.783 9.7589C146.79 9.11837 146.874 8.55261 147.28 8.0377C147.329 7.99863 147.377 7.95955 147.428 7.91929C147.476 7.87883 147.524 7.83836 147.574 7.79667C148.021 7.50886 148.409 7.4104 148.93 7.41794C149.016 7.41899 149.016 7.41899 149.104 7.42005C149.739 7.43989 150.221 7.57617 150.674 8.03981C151.196 8.62779 151.174 9.46395 151.171 10.2029C151.171 10.3069 151.172 10.4109 151.172 10.5149C151.173 10.7954 151.173 11.0759 151.172 11.3565C151.171 11.6522 151.172 11.9479 151.172 12.2437C151.173 12.741 151.172 13.2383 151.171 13.7355C151.17 14.3064 151.17 14.8773 151.171 15.4482C151.173 15.9414 151.173 16.4347 151.172 16.928C151.172 17.2212 151.172 17.5144 151.172 17.8075C151.179 20.6079 150.854 23.1723 148.872 25.3069C147.051 27.0931 144.596 27.6234 142.125 27.6101C141.361 27.5965 140.631 27.5386 139.89 27.3514C139.839 27.3386 139.787 27.3258 139.735 27.3126C138.47 26.9832 137.331 26.4384 136.345 25.5774C136.277 25.5181 136.209 25.4587 136.139 25.3975C134.67 24.0204 133.897 21.9737 133.787 19.9864C133.781 19.6975 133.78 19.409 133.78 19.1201C133.779 19.0102 133.779 18.9004 133.778 18.7905C133.777 18.4954 133.777 18.2003 133.776 17.9052C133.776 17.7203 133.776 17.5354 133.776 17.3505C133.774 16.7039 133.774 16.0574 133.774 15.4109C133.774 14.8103 133.772 14.2098 133.77 13.6092C133.768 13.0914 133.767 12.5735 133.767 12.0557C133.767 11.7474 133.767 11.439 133.765 11.1307C133.763 10.8409 133.763 10.5512 133.765 10.2614C133.765 10.1055 133.763 9.94965 133.762 9.79378C133.767 9.1241 133.845 8.551 134.276 8.01812C134.333 7.97119 134.389 7.92426 134.448 7.87591C134.504 7.82739 134.56 7.77887 134.618 7.72888C135.032 7.45536 135.431 7.42386 135.912 7.42759Z" fill="white"/>
<path d="M171.656 2.87385C172.161 3.2579 172.413 3.67962 172.564 4.28932C172.592 4.55459 172.591 4.81611 172.586 5.08263C172.586 5.15526 172.586 5.22789 172.585 5.30273C172.584 5.53218 172.581 5.76158 172.578 5.99102C172.577 6.14764 172.576 6.30426 172.575 6.46089C172.573 6.84259 172.569 7.22426 172.564 7.60595C172.678 7.60518 172.678 7.60518 172.795 7.60439C173.515 7.59968 174.236 7.59622 174.957 7.59396C175.328 7.59276 175.699 7.59113 176.069 7.58849C176.427 7.58596 176.786 7.58459 177.144 7.58399C177.28 7.58357 177.416 7.58274 177.552 7.58148C179.534 7.5639 179.534 7.5639 180.121 8.12176C180.579 8.58125 180.665 8.9606 180.694 9.60171C180.68 10.1169 180.593 10.5141 180.27 10.9226C179.715 11.4208 179.11 11.564 178.381 11.5571C178.287 11.5572 178.287 11.5572 178.19 11.5572C177.983 11.5571 177.775 11.5559 177.568 11.5547C177.424 11.5544 177.28 11.5542 177.135 11.554C176.756 11.5534 176.378 11.5519 175.999 11.5502C175.612 11.5486 175.225 11.5479 174.838 11.5471C174.08 11.5455 173.322 11.5429 172.564 11.5396C172.568 12.646 172.574 13.7523 172.582 14.8587C172.585 15.3725 172.588 15.8863 172.59 16.4002C172.593 16.8968 172.596 17.3934 172.599 17.89C172.601 18.0787 172.602 18.2674 172.602 18.4561C172.586 20.6756 172.586 20.6756 173.622 22.5781C174.213 23.0703 174.96 23.3578 175.723 23.4178C175.795 23.424 175.867 23.4303 175.942 23.4367C176.49 23.46 176.995 23.3732 177.529 23.2635C179.245 22.9154 179.245 22.9154 180.029 23.3759C180.512 23.7271 180.772 24.1426 180.886 24.729C180.969 25.3539 180.86 25.829 180.501 26.3487C179.784 27.1986 178.397 27.4713 177.342 27.5828C174.839 27.6906 172.572 27.3675 170.637 25.6545C170.59 25.6138 170.543 25.573 170.495 25.531C169.046 24.1866 168.416 22.0928 168.313 20.173C168.294 19.555 168.299 18.9369 168.303 18.3187C168.303 18.122 168.304 17.9254 168.304 17.7287C168.305 17.2685 168.306 16.8082 168.309 16.348C168.311 15.8229 168.313 15.2978 168.314 14.7727C168.316 13.695 168.32 12.6173 168.325 11.5396C168.199 11.542 168.199 11.542 168.07 11.5445C167.754 11.5501 167.437 11.5537 167.121 11.5566C166.985 11.5581 166.848 11.5602 166.712 11.5629C164.948 11.5968 164.948 11.5968 164.241 10.9852C163.828 10.5175 163.732 9.97422 163.752 9.36248C163.813 8.86979 163.972 8.45109 164.342 8.11212C164.95 7.65315 165.591 7.59301 166.331 7.59841C166.389 7.59852 166.446 7.59863 166.505 7.59875C166.686 7.59917 166.868 7.60014 167.049 7.60113C167.173 7.60151 167.297 7.60187 167.42 7.60218C167.722 7.60303 168.024 7.60436 168.325 7.60595C168.324 7.51185 168.323 7.41776 168.322 7.32081C168.318 6.96863 168.315 6.61645 168.313 6.26426C168.312 6.1124 168.31 5.96055 168.308 5.8087C168.305 5.58927 168.304 5.36987 168.303 5.15042C168.302 5.08354 168.3 5.01666 168.299 4.94775C168.299 4.24342 168.447 3.62567 168.94 3.10856C169.662 2.50668 170.841 2.39441 171.656 2.87385Z" fill="white"/>
<path d="M8.29405 7.42758C8.44417 7.42572 8.44417 7.42572 8.59732 7.42382C10.6532 7.42279 12.4935 8.1931 13.9869 9.59207C14.5889 10.2227 15.0877 10.9733 15.4366 11.771C15.5023 11.5414 15.525 11.3332 15.5295 11.0947C15.5311 11.0221 15.5326 10.9496 15.5342 10.8748C15.5355 10.7971 15.5367 10.7194 15.5381 10.6394C15.5405 10.5193 15.5405 10.5193 15.5429 10.3969C15.548 10.1414 15.5525 9.88604 15.557 9.63063C15.5604 9.45739 15.5637 9.28414 15.5671 9.1109C15.5754 8.68639 15.5832 8.26187 15.5908 7.83734C16.0739 7.83734 16.5571 7.83734 17.0549 7.83734C17.0601 10.2997 17.0643 12.762 17.0667 15.2244C17.067 15.5157 17.0673 15.8071 17.0676 16.0984C17.0677 16.1564 17.0677 16.2144 17.0678 16.2741C17.0688 17.2106 17.0706 18.1471 17.0727 19.0836C17.0749 20.046 17.0762 21.0085 17.0767 21.9709C17.077 22.5637 17.078 23.1566 17.0799 23.7495C17.0812 24.2057 17.0814 24.6619 17.0811 25.1181C17.0811 25.3041 17.0816 25.49 17.0825 25.676C17.0932 28.0359 16.7395 30.1714 15.0251 31.9332C13.0923 33.7675 10.4345 34.0517 7.89411 33.9931C5.80265 33.9198 3.7773 33.3162 2.25921 31.825C2.18665 31.7552 2.18665 31.7552 2.11262 31.684C1.25313 30.7867 0.85194 29.5607 0.717997 28.3541C1.30289 28.3541 1.88778 28.3541 2.4904 28.3541C2.53172 28.5403 2.57305 28.7264 2.61562 28.9181C2.87693 29.997 3.4285 30.8774 4.36394 31.502C6.39497 32.6982 9.03117 32.7915 11.2825 32.2489C12.6756 31.88 13.8197 31.1235 14.589 29.8967C15.4199 28.4251 15.4015 26.9114 15.3807 25.276C15.3775 24.9962 15.3762 24.7164 15.3746 24.4366C15.3714 23.8913 15.3661 23.346 15.3596 22.8007C15.3281 22.8645 15.2967 22.9282 15.2643 22.9939C15.2229 23.0775 15.1815 23.161 15.1388 23.2471C15.0979 23.3299 15.0569 23.4128 15.0147 23.4981C14.1779 25.1235 12.6336 26.1951 10.9334 26.7488C8.76548 27.4278 6.25933 27.168 4.24715 26.1463C3.68787 25.8362 3.19916 25.4615 2.72158 25.0375C2.66695 24.9893 2.61231 24.9411 2.55602 24.8914C0.923499 23.3575 0.117816 20.8785 0.0161363 18.688C0.0118718 18.5013 0.00974913 18.3147 0.00879541 18.128C0.00835615 18.059 0.0079169 17.99 0.00746434 17.919C0.00674058 17.7734 0.00623439 17.6279 0.00593572 17.4824C0.00519513 17.2653 0.00280317 17.0482 0.000366868 16.8311C-0.0068119 15.6122 0.0893995 14.3898 0.462732 13.222C0.482376 13.1591 0.50202 13.0962 0.522259 13.0314C1.20314 10.9328 2.47953 9.27438 4.4413 8.24288C5.69014 7.6382 6.9155 7.42419 8.29405 7.42758ZM5.41871 9.45709C5.3452 9.49119 5.27169 9.52529 5.19596 9.56043C4.65322 9.83432 4.23459 10.1922 3.80043 10.614C3.75216 10.6567 3.70388 10.6994 3.65414 10.7433C2.20314 12.0675 1.76774 14.297 1.64273 16.1675C1.59157 17.3506 1.59572 18.5457 1.79685 19.7155C1.80596 19.7687 1.81508 19.822 1.82447 19.8768C2.14287 21.6301 2.95147 23.3911 4.43649 24.4491C6.06333 25.5601 7.99299 25.8757 9.92226 25.5578C11.3417 25.26 12.4959 24.692 13.5101 23.6491C13.5614 23.5976 13.6126 23.5461 13.6654 23.4931C14.6844 22.4043 15.1978 20.9334 15.4366 19.4841C15.4498 19.4056 15.463 19.327 15.4766 19.2461C15.5199 18.894 15.5276 18.5496 15.5293 18.1952C15.5298 18.1237 15.5302 18.0523 15.5307 17.9786C15.5314 17.8276 15.5319 17.6765 15.5322 17.5255C15.5329 17.2989 15.5353 17.0723 15.5378 16.8457C15.5495 14.7669 15.1134 12.5754 13.6642 10.9997C13.5718 10.8953 13.5718 10.8953 13.4776 10.7888C12.4916 9.73185 11.2304 9.15484 9.81118 8.91717C9.76171 8.90862 9.71225 8.90007 9.66128 8.89126C8.23357 8.69022 6.72924 8.84807 5.41871 9.45709Z" fill="white"/>
<path d="M159.683 0.253221C160.222 0.586144 160.517 1.00376 160.663 1.61849C160.698 1.82912 160.706 2.02519 160.707 2.23866C160.707 2.32197 160.707 2.40529 160.707 2.49112C160.707 2.58221 160.707 2.67329 160.707 2.76714C160.707 2.86425 160.708 2.96136 160.708 3.06141C160.709 3.33079 160.709 3.60017 160.709 3.86955C160.709 4.16015 160.709 4.45076 160.71 4.74136C160.711 5.37674 160.712 6.01212 160.712 6.64751C160.712 7.04436 160.712 7.44121 160.713 7.83806C160.714 8.93715 160.714 10.0362 160.715 11.1353C160.715 11.2408 160.715 11.2408 160.715 11.3484C160.715 11.4542 160.715 11.4542 160.715 11.5621C160.715 11.7049 160.715 11.8478 160.715 11.9906C160.715 12.0615 160.715 12.1323 160.715 12.2053C160.715 13.3532 160.717 14.501 160.718 15.6489C160.72 16.8278 160.721 18.0068 160.721 19.1857C160.721 19.8474 160.722 20.5092 160.723 21.1709C160.724 21.7345 160.725 22.298 160.724 22.8616C160.724 23.1489 160.724 23.4363 160.725 23.7237C160.726 24.0357 160.726 24.3476 160.725 24.6596C160.725 24.7498 160.726 24.84 160.727 24.933C160.722 25.7338 160.6 26.3846 160.031 26.9721C159.523 27.3848 158.936 27.4781 158.296 27.4533C157.63 27.3784 157.087 27.115 156.665 26.5898C156.352 26.0102 156.359 25.4761 156.36 24.8291C156.36 24.7302 156.36 24.6314 156.359 24.5295C156.358 24.2559 156.358 23.9824 156.359 23.7088C156.359 23.4134 156.358 23.118 156.357 22.8226C156.356 22.2443 156.355 21.6659 156.355 21.0875C156.355 20.6173 156.355 20.1472 156.354 19.677C156.353 18.3435 156.352 17.01 156.352 15.6765C156.352 15.6046 156.352 15.5327 156.352 15.4587C156.352 15.3868 156.352 15.3148 156.352 15.2407C156.353 14.0746 156.351 12.9085 156.349 11.7424C156.347 10.5445 156.346 9.34668 156.346 8.14883C156.346 7.47652 156.345 6.80422 156.344 6.13192C156.342 5.55956 156.342 4.98722 156.343 4.41487C156.344 4.12297 156.344 3.83109 156.342 3.5392C156.341 3.22246 156.342 2.90578 156.343 2.58905C156.342 2.4972 156.341 2.40536 156.341 2.31073C156.346 1.66179 156.476 1.16551 156.863 0.64008C157.589 -0.0704047 158.779 -0.174214 159.683 0.253221Z" fill="white"/>
<path d="M62.3716 7.42276C62.4239 7.42283 62.4762 7.4229 62.5301 7.42297C64.6386 7.43192 66.4535 8.0592 67.9922 9.53422C68.0509 9.58721 68.1096 9.64021 68.1701 9.69481C69.8997 11.312 70.5512 13.8809 70.6893 16.1675C70.7017 16.5917 70.7044 17.0157 70.7038 17.4401C70.7037 17.4982 70.7037 17.5563 70.7036 17.6161C70.6979 20.2588 70.2586 23.1118 68.3775 25.1146C68.3135 25.1856 68.2496 25.2566 68.1837 25.3298C66.8242 26.774 64.8748 27.5388 62.9074 27.6012C60.5751 27.6395 58.6653 27.178 56.8954 25.5774C56.1996 24.891 55.7495 24.1145 55.2772 23.2635C55.2517 26.6488 55.2263 30.034 55.2001 33.5219C54.6915 33.5219 54.1829 33.5219 53.6589 33.5219C53.6589 25.046 53.6589 16.5701 53.6589 7.83734C54.142 7.83734 54.6252 7.83734 55.123 7.83734C55.1277 8.03729 55.1324 8.23723 55.1372 8.44324C55.142 8.64033 55.1468 8.83742 55.1517 9.03451C55.155 9.16981 55.1582 9.30512 55.1614 9.44042C55.1794 10.2198 55.2053 10.9945 55.2772 11.771C55.3274 11.671 55.3274 11.671 55.3786 11.569C56.2751 9.80241 57.679 8.51375 59.5426 7.81806C60.4781 7.51414 61.3908 7.42137 62.3716 7.42276ZM56.93 11.1461C55.7235 12.6754 55.1937 14.6229 55.1844 16.5525C55.184 16.6254 55.1836 16.6983 55.1831 16.7733C55.1824 16.9272 55.1819 17.0811 55.1816 17.235C55.1808 17.4657 55.1784 17.6963 55.176 17.927C55.1627 20.3338 55.7188 22.6132 57.4033 24.4009C58.7369 25.6887 60.5499 26.2348 62.3791 26.2059C64.1641 26.1125 65.8415 25.5752 67.0955 24.2306C68.7156 22.3891 69.0894 19.9201 69.0855 17.551C69.0854 17.4946 69.0854 17.4382 69.0853 17.38C69.0784 14.8833 68.6392 12.4564 66.8784 10.5664C65.5033 9.27869 63.7096 8.77693 61.8562 8.82046C59.9301 8.9064 58.2068 9.68962 56.93 11.1461Z" fill="white"/>
<path d="M82.3544 7.43241C82.4097 7.43236 82.465 7.4323 82.522 7.43225C84.5482 7.43528 86.4223 7.92977 88.028 9.2257C88.0929 9.2779 88.1578 9.3301 88.2246 9.38388C90.0854 10.9683 90.9211 13.3913 91.1478 15.7637C91.3336 18.1168 91.2445 20.6166 90.2628 22.8007C90.2233 22.8892 90.1837 22.9777 90.143 23.0689C89.2711 24.9147 87.7712 26.3075 85.8703 27.0429C83.5938 27.8452 80.8379 27.9158 78.6147 26.8891C77.952 26.5681 77.3327 26.2192 76.7771 25.7317C76.6938 25.6647 76.6938 25.6647 76.6089 25.5964C74.7647 24.0641 73.9464 21.5979 73.7263 19.2819C73.6827 18.7055 73.6793 18.1288 73.6802 17.551C73.6803 17.4949 73.6804 17.4387 73.6805 17.3809C73.6884 14.516 74.294 11.7603 76.3551 9.64299C78.0043 8.07214 80.1136 7.43429 82.3544 7.43241ZM77.2323 10.9705C76.3262 11.9946 75.7898 13.3681 75.5442 14.702C75.5237 14.81 75.5237 14.81 75.5027 14.9201C75.3721 15.7015 75.3639 16.4751 75.3657 17.2657C75.3659 17.4914 75.3641 17.7171 75.3622 17.9428C75.354 20.3564 75.9116 22.635 77.6007 24.4349C78.0251 24.8454 78.4953 25.1416 79.0119 25.4232C79.0799 25.4604 79.148 25.4977 79.2181 25.5361C80.0695 25.9616 81.0704 26.1597 82.0173 26.1945C82.0756 26.1975 82.1339 26.2006 82.194 26.2038C84.0359 26.2563 85.7908 25.7275 87.1804 24.4976C87.2266 24.4585 87.2729 24.4194 87.3206 24.3792C88.2887 23.4981 88.8301 22.2255 89.1647 20.9881C89.1877 20.9032 89.1877 20.9032 89.2111 20.8165C89.469 19.7992 89.519 18.8014 89.5165 17.7576C89.5163 17.543 89.5181 17.3285 89.52 17.114C89.5286 14.7036 88.9702 12.3832 87.2719 10.5948C86.1837 9.54543 84.6102 8.89696 83.0961 8.84005C83.0032 8.83607 82.9104 8.83209 82.8147 8.82799C80.6635 8.76627 78.72 9.37253 77.2323 10.9705Z" fill="white"/>
<path d="M187.311 7.41794C187.398 7.41865 187.398 7.41865 187.486 7.41937C187.935 7.4321 188.288 7.51211 188.67 7.76021C188.739 7.80157 188.809 7.84293 188.881 7.88555C189.423 8.45777 189.529 9.12874 189.528 9.88713C189.528 9.95364 189.528 10.0201 189.529 10.0887C189.529 10.3115 189.53 10.5343 189.53 10.757C189.53 10.9168 189.53 11.0766 189.531 11.2364C189.532 11.6705 189.532 12.1046 189.533 12.5387C189.533 12.8101 189.533 13.0815 189.534 13.3529C189.535 14.2023 189.535 15.0518 189.536 15.9013C189.536 16.8811 189.537 17.8609 189.54 18.8406C189.541 19.5985 189.542 20.3563 189.542 21.1141C189.542 21.5665 189.543 22.0189 189.544 22.4712C189.545 22.897 189.545 23.3228 189.545 23.7487C189.545 23.9045 189.545 24.0604 189.546 24.2162C189.555 26.2575 189.555 26.2575 188.851 26.9748C188.282 27.4293 187.603 27.507 186.897 27.4286C186.389 27.3314 185.952 27.1045 185.587 26.7344C185.268 26.2469 185.19 25.7984 185.19 25.222C185.19 25.1534 185.19 25.0848 185.19 25.0141C185.189 24.7831 185.188 24.5522 185.188 24.3213C185.188 24.1561 185.187 23.9909 185.187 23.8257C185.185 23.3761 185.184 22.9265 185.184 22.477C185.183 22.1961 185.183 21.9152 185.182 21.6343C185.181 20.7553 185.18 19.8764 185.179 18.9975C185.179 17.983 185.177 16.9686 185.173 15.9541C185.171 15.1701 185.17 14.386 185.17 13.6019C185.169 13.1336 185.169 12.6653 185.167 12.197C185.165 11.7562 185.165 11.3154 185.166 10.8746C185.166 10.7131 185.165 10.5516 185.164 10.3901C185.153 8.67563 185.153 8.67563 185.656 8.0377C185.705 7.99862 185.754 7.95955 185.804 7.91929C185.852 7.87882 185.9 7.83836 185.95 7.79666C186.399 7.50765 186.789 7.41064 187.311 7.41794Z" fill="white"/>
<path d="M33.9312 7.83735C34.4398 7.83735 34.9484 7.83735 35.4725 7.83735C35.4731 8.08058 35.4731 8.08058 35.4738 8.32873C35.4782 9.86064 35.4838 11.3925 35.4906 12.9245C35.4941 13.7119 35.4971 14.4994 35.4991 15.2869C35.5009 15.9738 35.5035 16.6608 35.507 17.3477C35.5089 17.7109 35.5103 18.0741 35.5108 18.4373C35.5113 18.7803 35.5128 19.1233 35.5152 19.4663C35.5158 19.5911 35.5161 19.7159 35.516 19.8407C35.5147 21.5774 35.7819 23.29 36.9366 24.6519C38.0505 25.7631 39.4956 26.0601 41.011 26.0594C42.4171 26.0424 43.8208 25.5559 44.8685 24.5922C46.7657 22.5499 46.8355 19.9161 46.8394 17.2915C46.8401 16.9581 46.8422 16.6248 46.844 16.2915C46.8474 15.6627 46.8496 15.034 46.8514 14.4052C46.8535 13.6883 46.8569 12.9715 46.8603 12.2546C46.8675 10.7822 46.873 9.30977 46.8775 7.83735C47.4115 7.83735 47.9455 7.83735 48.4957 7.83735C48.4957 14.2006 48.4957 20.5639 48.4957 27.12C47.9871 27.12 47.4785 27.12 46.9545 27.12C46.8368 27.0022 46.865 26.8941 46.8616 26.7297C46.8601 26.6633 46.8586 26.5969 46.857 26.5285C46.8551 26.4203 46.8551 26.4203 46.8531 26.3099C46.8515 26.2364 46.8499 26.1629 46.8482 26.0871C46.8432 25.8513 46.8386 25.6156 46.8341 25.3798C46.8308 25.2203 46.8274 25.0609 46.824 24.9015C46.8158 24.5098 46.808 24.118 46.8004 23.7263C46.7607 23.7981 46.721 23.8699 46.6801 23.9439C45.7453 25.6186 44.4657 26.7553 42.6286 27.3508C40.7856 27.832 38.6322 27.7397 36.9366 26.8115C36.6406 26.6209 36.3637 26.4144 36.0889 26.1945C35.9697 26.1086 35.9697 26.1086 35.8481 26.0209C34.6487 24.8726 33.9918 23.1316 33.9173 21.4907C33.9104 21.1309 33.9121 20.7712 33.9137 20.4114C33.9138 20.2737 33.9138 20.136 33.9137 19.9984C33.9136 19.6273 33.9145 19.2562 33.9156 18.8851C33.9166 18.4963 33.9167 18.1075 33.9168 17.7187C33.9173 16.9836 33.9186 16.2486 33.9201 15.5135C33.9219 14.6762 33.9227 13.8388 33.9235 13.0015C33.9251 11.2801 33.9278 9.55873 33.9312 7.83735Z" fill="white"/>
<path d="M29.4491 7.44417C29.5311 7.44442 29.613 7.44466 29.6974 7.44492C29.8239 7.44589 29.8239 7.44589 29.953 7.44688C30.0391 7.44723 30.1253 7.44757 30.214 7.44793C30.4256 7.44884 30.6372 7.45022 30.8488 7.4517C30.8488 8.01167 30.8488 8.57164 30.8488 9.14858C30.62 9.1438 30.3911 9.13903 30.1553 9.13411C28.6231 9.12548 27.274 9.48177 26.0711 10.4598C25.99 10.5187 25.9089 10.5775 25.8254 10.6382C24.5902 11.8196 23.9874 13.6233 23.8981 15.2953C23.8915 15.609 23.8892 15.9223 23.8888 16.236C23.8881 16.3554 23.8873 16.4749 23.8864 16.5943C23.8844 16.9154 23.8832 17.2364 23.8822 17.5574C23.881 17.8942 23.8789 18.2309 23.8769 18.5676C23.8733 19.2038 23.8705 19.8399 23.8679 20.4761C23.865 21.201 23.8612 21.9258 23.8573 22.6507C23.8494 24.1405 23.8425 25.6303 23.8363 27.12C23.3023 27.12 22.7682 27.12 22.218 27.12C22.218 20.7568 22.218 14.3935 22.218 7.83735C22.7266 7.83735 23.2352 7.83735 23.7592 7.83735C23.7847 9.03365 23.8101 10.2299 23.8363 11.4625C23.9919 11.2367 23.9919 11.2367 24.1105 11.0075C24.9987 9.36261 26.3087 8.18831 28.1128 7.64131C28.5599 7.51298 28.984 7.44166 29.4491 7.44417Z" fill="white"/>
<path d="M188.914 0.452081C189.428 0.792194 189.758 1.30455 189.931 1.89346C190.091 2.71145 189.976 3.47864 189.546 4.19292C189.128 4.77648 188.521 5.09184 187.822 5.21491C187.083 5.28629 186.339 5.2096 185.717 4.77622C185.256 4.39336 184.849 3.8875 184.74 3.28664C184.666 2.37038 184.699 1.61255 185.298 0.871479C186.262 -0.149024 187.733 -0.227991 188.914 0.452081Z" fill="white"/>
</svg>
